<svg xmlns="http://www.w3.org/2000/svg" viewBox="0 0 83.62 70.51"><path d="M65.78,24.45h6.61A10.57,10.57,0,0,1,83.18,34.81c.12,11.17,0,22.34,0,33.51a1.66,1.66,0,0,1-1,1.66,1.73,1.73,0,0,1-2-.55c-3.34-3.27-6.69-6.52-10-9.81a2.54,2.54,0,0,0-2-.8c-6.5,0-13-.09-19.5,0A11,11,0,0,1,37.27,49H36.2c-5.19,0-10.38,0-15.57,0a2.5,2.5,0,0,0-1.91.76q-7.45,7.36-15,14.67a5.09,5.09,0,0,1-.86.75A1.62,1.62,0,0,1,.41,63.91a5.93,5.93,0,0,1,0-.73c0-15.77,0-31.55,0-47.32,0-6.4,2.84-11.27,8.65-14.1A13.67,13.67,0,0,1,14.65.46C27,.35,39.28.36,51.59.42c7,0,13.22,5.81,14,13,.34,3.22.18,6.49.24,9.74C65.79,23.52,65.78,23.93,65.78,24.45Zm-3.37-.11c0-3.31.22-6.54,0-9.73a11.63,11.63,0,0,0-12-10.94c-11.62.16-23.24,0-34.86.06a13.6,13.6,0,0,0-3.18.35c-5.11,1.31-8.56,6-8.57,11.72q0,21.42,0,42.85c0,.28,0,.57.08,1,.43-.4.73-.68,1-1q6.14-6,12.23-12a3.42,3.42,0,0,1,2.65-1.09c5.43,0,10.86,0,16.29,0h1.19c0-3.31,0-6.48,0-9.66a15.86,15.86,0,0,1,.34-3.07A11.09,11.09,0,0,1,42.12,26c-1.47-2.93-1.29-5.39.49-7.36a5.22,5.22,0,0,1,6-1.42c3,1.37,3.85,3.92,3.35,7.08ZM79.59,64.49l.27-.21c0-.13,0-.26,0-.38,0-9.54,0-19.09,0-28.63a7.52,7.52,0,0,0-7.69-7.54c-8.12.14-16.25.05-24.37.07a6.78,6.78,0,0,0-5.55,2.73,8.12,8.12,0,0,0-1.67,5.31c0,3.77.09,7.54,0,11.31-.14,5.05,3,8.36,8,8.36,6.92,0,13.83,0,20.75,0a3.13,3.13,0,0,1,2.39,1c2,2.07,4.15,4.07,6.21,6.12C78.5,63.18,79,63.85,79.59,64.49ZM48.84,22.59a2.35,2.35,0,0,0-2.18-2.43,2.39,2.39,0,0,0-2.23,2.51c0,1,.63,1.93,1.21,1.93C48.08,24.61,48.84,24.13,48.84,22.59Z" fill="#37383a" stroke="#fff" stroke-miterlimit="10" stroke-width="0.75"/><path d="M25,22.61a5.72,5.72,0,0,1-5.58,5.78,5.79,5.79,0,0,1,0-11.56A5.72,5.72,0,0,1,25,22.61Zm-3.34,0a2.37,2.37,0,0,0-2.23-2.41,2.41,2.41,0,0,0-2.2,2.45,2.38,2.38,0,0,0,2.29,2.45A2.39,2.39,0,0,0,21.7,22.57Z" fill="#37383a" stroke="#fff" stroke-miterlimit="10" stroke-width="0.75"/><path d="M38.6,22.66a5.53,5.53,0,1,1-5.51-5.83A5.69,5.69,0,0,1,38.6,22.66Zm-7.72-.09A2.33,2.33,0,0,0,33,25.06a2.46,2.46,0,0,0,.09-4.9A2.32,2.32,0,0,0,30.88,22.57Z" fill="#37383a" stroke="#fff" stroke-miterlimit="10" stroke-width="0.75"/><path d="M56.64,44.72c0-2.7,1.07-3.89,3.84-4.27a2.41,2.41,0,0,0,2-2.44,2.37,2.37,0,0,0-2-2.39,2.19,2.19,0,0,0-2.36,2c0,.24-.06.48-.12.72a1.58,1.58,0,0,1-1.8,1.33A1.51,1.51,0,0,1,54.72,38a5.49,5.49,0,0,1,2.61-4.89,5.14,5.14,0,0,1,5.42-.23,5.79,5.79,0,0,1,2.94,6,5.56,5.56,0,0,1-4.85,4.81c-.75.09-1,.37-.89,1a3.63,3.63,0,0,1,0,.93,1.65,1.65,0,0,1-3.28-.16C56.63,45.28,56.64,45,56.64,44.72Z" fill="#37383a" stroke="#fff" stroke-miterlimit="10" stroke-width="0.75"/><path d="M60,50.25A1.75,1.75,0,0,1,58.3,52a1.67,1.67,0,0,1-1.65-1.75,1.77,1.77,0,0,1,1.72-1.72A1.6,1.6,0,0,1,60,50.25Z" fill="#37383a" stroke="#fff" stroke-miterlimit="10" stroke-width="0.75"/></svg>