<svg xmlns="http://www.w3.org/2000/svg" viewBox="0 0 87.63 87.63"><path d="M87.4,41.94c-.1.19-.2.38-.29.58a3.68,3.68,0,0,1-3.27,2.35A3.54,3.54,0,0,1,80.29,43a1.11,1.11,0,0,0-1.12-.65c-2.12,0-4.25,0-6.39,0l-.43,7.3c1.1,0,2.25,0,3.39,0,.23,0,.46-.44.63-.7a3.81,3.81,0,0,1,4.3-1.64,3.8,3.8,0,0,1,0,7.33,3.71,3.71,0,0,1-4.31-1.74,1.14,1.14,0,0,0-1.21-.66,21.69,21.69,0,0,1-2.55,0,1,1,0,0,0-1.19.85A24.62,24.62,0,0,1,66.92,62,49.91,49.91,0,0,1,56,72.08,57.2,57.2,0,0,1,45,78a2.88,2.88,0,0,1-2.3,0,57.38,57.38,0,0,1-10.16-5.3c-.23-.15-.47-.28-.81-.48,0,.37-.05.64-.05.91,0,2,0,4.09,0,6.13a1.16,1.16,0,0,0,.42.88,3.75,3.75,0,0,1,2.05,3.8,3.67,3.67,0,0,1-2.74,3.32c-.07,0-.12.1-.18.15h-1.7c-.19-.1-.38-.2-.58-.29a3.68,3.68,0,0,1-2.35-3.27,3.54,3.54,0,0,1,1.86-3.55,1.08,1.08,0,0,0,.65-1.12c0-2.73,0-5.45,0-8.17a1.94,1.94,0,0,0-.57-1.2c-1.56-1.49-3.19-2.89-4.74-4.39a2,2,0,0,1-.6-1.38c.09-1.07,1.34-1.36,2.22-.56,1.21,1.11,2.35,2.3,3.6,3.37a50.52,50.52,0,0,0,14.44,8.67,1.19,1.19,0,0,0,.79,0,49,49,0,0,0,20.91-15.4,23.52,23.52,0,0,0,4.73-12c.21-1.74.22-3.5.27-5.26,0-1.39,0-2.78,0-4.17,0-1.08.48-1.67,1.28-1.67s1.25.59,1.27,1.68c0,.31,0,.61,0,1a4.09,4.09,0,0,0,.61.09c2,0,4,0,6,0a1,1,0,0,0,.79-.42,3.75,3.75,0,0,1,3.8-2.06,3.69,3.69,0,0,1,3.32,2.75c0,.07.1.12.15.18Zm-3.81.39a1.24,1.24,0,1,0-1.28-1.2A1.28,1.28,0,0,0,83.59,42.33ZM80.88,51a1.27,1.27,0,0,0-1.22-1.27,1.25,1.25,0,1,0,0,2.49A1.27,1.27,0,0,0,80.88,51ZM30.34,82.31a1.27,1.27,0,1,0,1.26,1.22A1.26,1.26,0,0,0,30.34,82.31Z" fill="#37383a" stroke="#fff" stroke-miterlimit="10" stroke-width="0.46"/><path d="M15,41c-1.06,0-2,0-2.87,0-.27,0-.59.35-.76.62a3.87,3.87,0,0,1-4.09,1.81,3.83,3.83,0,0,1-.61-7.3,3.72,3.72,0,0,1,4.6,1.53,1.31,1.31,0,0,0,1.41.76c.73,0,1.46,0,2.26,0V31.13H12.43c-1.3,0-2.61,0-3.91,0a1.14,1.14,0,0,0-1.2.67A3.72,3.72,0,0,1,3,33.52a3.81,3.81,0,0,1,0-7.34,3.7,3.7,0,0,1,4.31,1.74,1.13,1.13,0,0,0,1.2.66c2.1,0,4.19,0,6.38,0,0-.37,0-.67,0-1,0-2.13,0-4.25,0-6.38,0-1.38.45-2,1.75-2.35a53.63,53.63,0,0,0,14.41-6.13A24.8,24.8,0,0,1,42.93,9.36a25.14,25.14,0,0,1,13,3.06c1.55.83,3.08,1.7,4.62,2.55.24.13.5.23.81.38a6.18,6.18,0,0,0,.07-.64c0-2.12,0-4.25,0-6.38a1.31,1.31,0,0,0-.52-.9,3.82,3.82,0,1,1,3.61,0,1.22,1.22,0,0,0-.49.83c0,2.56,0,5.11,0,7.67a.81.81,0,0,0,.67.91c2,.63,4,1.33,6.06,1.94,1.44.43,2,1,2,2.45q0,5.58,0,11.16c0,.28,0,.66-.11.82-.34.35-.79.8-1.21.82s-.85-.46-1.11-.83-.12-.71-.12-1.08c0-3.35,0-6.69,0-10,0-.5-.06-.82-.66-1a47.85,47.85,0,0,1-12.73-5.35,25.63,25.63,0,0,0-10-3.7A22.37,22.37,0,0,0,33,14.64,69.21,69.21,0,0,1,21.72,20c-1.18.4-2.37.76-3.57,1.09-.47.12-.65.31-.65.8,0,8.23-.05,16.46.13,24.69a23.39,23.39,0,0,0,3.79,11.94c.23.36.48.7.69,1.07a1.28,1.28,0,0,1-.36,1.86A1.24,1.24,0,0,1,20,61a42.86,42.86,0,0,1-2.33-4,29.29,29.29,0,0,1-2.71-13ZM64,4.09a1.28,1.28,0,0,0-1.19-1.3,1.27,1.27,0,0,0-.07,2.53A1.28,1.28,0,0,0,64,4.09Zm-59.89,27a1.24,1.24,0,1,0-1.28-1.2A1.27,1.27,0,0,0,4.07,31.09ZM8,38.48A1.25,1.25,0,0,0,8,41a1.25,1.25,0,1,0,0-2.49Z" fill="#37383a" stroke="#fff" stroke-miterlimit="10" stroke-width="0.46"/><path d="M67.49,35.83c0,3.43.12,6.87,0,10.3a22,22,0,0,1-5.57,13.94,48.31,48.31,0,0,1-16.73,12.3,3,3,0,0,1-2.67,0A48.42,48.42,0,0,1,25.75,60.09a21.86,21.86,0,0,1-5.42-12.25A54.29,54.29,0,0,1,20.07,42c0-5.51,0-11,0-16.52,0-1.8.29-2.16,2-2.82,2.11-.83,4.19-1.73,6.29-2.57a1.77,1.77,0,0,1,1.2-.18A1.86,1.86,0,0,1,30.41,21c.16.61-.28,1.06-.84,1.31-1.61.7-3.21,1.43-4.84,2.07-2.1.83-2.12.8-2.11,3,0,6.21-.07,12.43.1,18.64a19.28,19.28,0,0,0,5,12.44A45.66,45.66,0,0,0,43.09,69.84a1.51,1.51,0,0,0,1.43,0A45.63,45.63,0,0,0,60,58.38,19.11,19.11,0,0,0,64.9,46.16c.18-6.78.09-13.57.09-20.35a1,1,0,0,0-.49-.8C60,23.5,56,21.09,51.77,19a17.11,17.11,0,0,0-16,0c-.43.2-.85.44-1.28.66-.85.43-1.55.31-1.94-.35a1.29,1.29,0,0,1,.64-1.85,20.39,20.39,0,0,1,21-.1,62.77,62.77,0,0,0,11.68,5.47c1.3.43,1.67,1,1.67,2.42,0,3.55,0,7.09,0,10.64Z" fill="#37383a" stroke="#fff" stroke-miterlimit="10" stroke-width="0.46"/><path d="M37.38,38.53c0-.89,0-1.76.12-2.64a6.34,6.34,0,0,1,12.62,0c.07.87.09,1.75.13,2.65a3.72,3.72,0,0,0,.51.12,2.94,2.94,0,0,1,2.84,3.19c0,2.19,0,4.37,0,6.56,0,1.07,0,2.15,0,3.23a2.94,2.94,0,0,1-3.14,3.16q-6.63.06-13.27,0A2.92,2.92,0,0,1,34,51.64c0-3.29,0-6.58,0-9.87a2.92,2.92,0,0,1,2.82-3.13C37,38.62,37.17,38.57,37.38,38.53Zm6.41,13.71c2.1,0,4.2,0,6.29,0,.67,0,1-.19,1-.91,0-3.09,0-6.18,0-9.27,0-.65-.23-.91-.9-.9-4.22,0-8.44,0-12.66,0-.71,0-.94.28-.93,1q0,4.59,0,9.18c0,.69.23,1,.94,1C39.6,52.22,41.7,52.24,43.79,52.24Zm3.8-13.66c0-.91.06-1.73,0-2.53a3.74,3.74,0,0,0-4.89-3.19c-2.17.71-3.13,2.65-2.54,5.72Z" fill="#37383a" stroke="#fff" stroke-miterlimit="10" stroke-width="0.46"/><path d="M47.63,45.44a3.62,3.62,0,0,1-1.92,3.28,1,1,0,0,0-.63,1.13,3.24,3.24,0,0,1-.06.93,1.14,1.14,0,0,1-1.18,1c-.63,0-1.24-.33-1.2-1,.09-1.32-.61-2-1.54-2.77a3.62,3.62,0,0,1-.56-4.59,3.82,3.82,0,0,1,7.09,2Zm-3.78-1.27a1.26,1.26,0,0,0-.12,2.52,1.26,1.26,0,1,0,.12-2.52Z" fill="#37383a" stroke="#fff" stroke-miterlimit="10" stroke-width="0.46"/></svg>