<svg xmlns="http://www.w3.org/2000/svg" viewBox="0 0 77.42 77.36"><path d="M31.78,37.05a13.05,13.05,0,0,1-1.5.37c-2.33.27-4-1.1-3.93-3.45a45,45,0,0,1,.78-6.75c.51-2.66,1.27-5.27,1.92-7.89a6.23,6.23,0,0,1,4.44-4.65,16.4,16.4,0,0,1,10.65.07,6.21,6.21,0,0,1,4.19,4.33,70.24,70.24,0,0,1,2.75,13.31,12.68,12.68,0,0,1,0,1.63,3.37,3.37,0,0,1-4.41,3.32c-.34-.08-.67-.2-1.09-.33.1,2.05.2,4,.3,6l.24,5.34c0,.21,0,.41,0,.62-.08,1.87-1,3.07-2.44,3.32A3.46,3.46,0,0,1,39.66,50c-.4-1.18-.63-2.43-1-3.83-.16.78-.27,1.41-.42,2A15,15,0,0,1,37.79,50a3.49,3.49,0,0,1-4.13,2.32c-1.4-.27-2.26-1.38-2.36-3.13,0-.8,0-1.6,0-2.4.15-3.12.31-6.25.47-9.37C31.8,37.28,31.79,37.18,31.78,37.05Zm11.38.49c-.26-4.72-.49-8.66-.7-12.61-.06-1,.37-1.57,1.15-1.61s1.21.46,1.34,1.46c.35,2.68.68,5.37,1.11,8a4.16,4.16,0,0,0,.85,1.77,1.16,1.16,0,0,0,1.07.34c.29-.1.54-.58.63-.94a4.56,4.56,0,0,0,0-1.38A68,68,0,0,0,45.9,19.68a3.57,3.57,0,0,0-2.2-2.44,13.69,13.69,0,0,0-9.84,0,3.6,3.6,0,0,0-2.36,2.58c-.41,1.55-.94,3.07-1.23,4.64-.56,3-1,6.1-1.46,9.16A1.09,1.09,0,0,0,29.53,35a1.16,1.16,0,0,0,1.41-.82,10.3,10.3,0,0,0,.62-2.3c.35-2.43.64-4.87.95-7.3a1.24,1.24,0,0,1,1.34-1.21A1.22,1.22,0,0,1,35,24.63c0,.39,0,.78-.05,1.16q-.51,9.3-1,18.58c-.08,1.53-.14,3.05-.14,4.57a1.12,1.12,0,0,0,.52.87.85.85,0,0,0,1.11-.58A6.24,6.24,0,0,0,35.77,48c.57-3.49,1.12-7,1.68-10.47.14-.84.54-1.23,1.23-1.24s1.18.41,1.31,1.25c.46,3,.9,5.92,1.38,8.88A25.33,25.33,0,0,0,42,49.17a.85.85,0,0,0,1.14.64c.25-.09.43-.56.52-.88a4.4,4.4,0,0,0,0-1.09C43.49,44.15,43.3,40.46,43.16,37.54Z" fill="#37383a" stroke="#fff" stroke-miterlimit="10" stroke-width="0.43"/><path d="M68.87,43.66c.14-1.78.27-3.45.41-5.12.09-1.16.14-2.33.31-3.48a4.55,4.55,0,0,1,4.5-3.82,3,3,0,0,1,3.08,3c0,5.24.06,10.49,0,15.74a5.6,5.6,0,0,1-1,2.78q-2.64,4-5.49,7.79C68.24,63.7,65.8,66.84,63.35,70a4.52,4.52,0,0,0-1.05,3.36,20.51,20.51,0,0,1,0,2.48,1.24,1.24,0,1,1-2.47,0,38,38,0,0,1,0-4.27,4.34,4.34,0,0,1,.85-2c2.34-3.19,4.76-6.31,7.12-9.48,2-2.64,3.87-5.3,5.8-8a5.85,5.85,0,0,0,1.09-3.7c-.07-4.52,0-9,0-13.57,0-1.06-.5-1.38-1.47-.94A2.24,2.24,0,0,0,72,36c-.17,2.24-.33,4.48-.5,6.72-.14,1.81-.22,3.62-.49,5.41a3.89,3.89,0,0,1-1,2c-3,3-6,6-9,9-.2.2-.44.49-.67.5A2.37,2.37,0,0,1,59,59.37,1,1,0,0,1,58.74,58a3.06,3.06,0,0,1,.58-.71q4.24-4.26,8.5-8.5c.89-.9,1-1.6.45-2.37a2.15,2.15,0,0,0-2.72-.57,5.53,5.53,0,0,0-1,.75c-2.36,2.1-4.72,4.19-7.06,6.3a15.29,15.29,0,0,1-3.74,2.45,14,14,0,0,0-7.3,8,7.14,7.14,0,0,0,.12,4.72,22.67,22.67,0,0,1,.81,7.5c0,1-.49,1.54-1.26,1.53s-1.25-.56-1.21-1.48a22.49,22.49,0,0,0-.86-7.34c-1.16-4,.23-7.36,2.67-10.44a17.74,17.74,0,0,1,6.47-5.07,14.13,14.13,0,0,0,3-2.12q3.39-2.91,6.66-5.93A5.05,5.05,0,0,1,68.87,43.66Z" fill="#37383a" stroke="#fff" stroke-miterlimit="10" stroke-width="0.43"/><path d="M8.58,43.66a5,5,0,0,1,5.83,1c2.5,2.28,5,4.54,7.59,6.75a11.75,11.75,0,0,0,2.47,1.57,16.24,16.24,0,0,1,9.17,11,9.37,9.37,0,0,1-.41,5,17.32,17.32,0,0,0-.71,5.89,11.2,11.2,0,0,1,0,1.16,1.22,1.22,0,0,1-1.25,1.22A1.18,1.18,0,0,1,30.06,76c0-2.27-.23-4.55.52-6.77a24.31,24.31,0,0,0,.57-2.56,7,7,0,0,0-.9-4.92,14.75,14.75,0,0,0-7.09-6.66,11.79,11.79,0,0,1-2.89-1.91c-2.57-2.21-5.08-4.48-7.6-6.75a2.48,2.48,0,0,0-2.4-.73,1.77,1.77,0,0,0-1.34,1.27,1.57,1.57,0,0,0,.51,1.67c2.88,2.85,5.75,5.73,8.61,8.6a3.78,3.78,0,0,1,.57.63,1.12,1.12,0,0,1-.15,1.55,1.16,1.16,0,0,1-1.56.14,4,4,0,0,1-.57-.52c-2.91-2.91-5.8-5.82-8.72-8.71a3.78,3.78,0,0,1-1.2-2.45l-.9-11.28a8.61,8.61,0,0,0-.13-1.15,2,2,0,0,0-1.57-1.64c-.73-.2-1.08.07-1.08.83,0,1.56,0,3.11,0,4.66,0,3.2,0,6.41,0,9.61a4.51,4.51,0,0,0,.82,2.85q3.3,4.55,6.64,9.05c2.18,2.95,4.37,5.89,6.54,8.85a4.52,4.52,0,0,1,.9,3.13c-.07,1,0,2,0,2.94s-.54,1.46-1.28,1.44-1.19-.55-1.2-1.42-.05-1.92,0-2.87a3.43,3.43,0,0,0-.74-2.45c-2.22-2.88-4.48-5.75-6.66-8.67-2-2.73-4-5.5-6-8.28A8.46,8.46,0,0,1,.22,48.21c.1-4.5,0-9,0-13.5a3.2,3.2,0,0,1,4.5-3.24,4.26,4.26,0,0,1,3.11,3.7c.28,2.46.42,4.94.62,7.41C8.5,42.91,8.54,43.24,8.58,43.66Z" fill="#37383a" stroke="#fff" stroke-miterlimit="10" stroke-width="0.43"/><path d="M54.85,39c-.28,1-.46,1.84-.79,2.66a3.27,3.27,0,0,1-4,1.86,2.83,2.83,0,0,1-1.86-3.05,1.13,1.13,0,0,1,1.12-1,1.21,1.21,0,0,1,1.25.85c.13.31-.08.87.57.83s.76-.49.85-.95c.51-2.69,1-5.38,1.5-8.07,0-.1,0-.2,0-.31.21-1.13.6-1.57,1.37-1.56s1.13.43,1.32,1.53c.39,2.16.76,4.32,1.14,6.48.12.64.25,1.27.4,1.89s.32,1.11,1,.94c.22-.06.41-.7.4-1.07-.11-2.84-.26-5.68-.43-8.52-.19-3.4-.42-6.8-.62-10.21a1.26,1.26,0,0,1,1.11-1.5c.66-.07,1.19.38,1.36,1.2.39,2,.74,4,1.17,5.92a6.19,6.19,0,0,0,.71,1.7c.11.21.53.45.65.39a1,1,0,0,0,.45-.71,7.5,7.5,0,0,0-.21-1.83c-.85-3.38-1.73-6.75-2.59-10.12A2.53,2.53,0,0,0,59,14.53a12.23,12.23,0,0,0-8.27,0,5,5,0,0,0-1.22.8,1.23,1.23,0,0,1-1.74,0,1.17,1.17,0,0,1,.08-1.78A8.93,8.93,0,0,1,50.36,12a15,15,0,0,1,8.92,0,5.27,5.27,0,0,1,3.93,4.07c.87,3.69,1.82,7.36,2.71,11A5,5,0,0,1,66,28.65a2.9,2.9,0,0,1-4.14,2.63l-.62-.22c0,.73,0,1.41,0,2.09.1,2.22.24,4.44.35,6.65a8,8,0,0,1,0,1.09,2.77,2.77,0,0,1-2.21,2.73,3.24,3.24,0,0,1-3.65-1.84A27,27,0,0,1,54.85,39Z" fill="#37383a" stroke="#fff" stroke-miterlimit="10" stroke-width="0.43"/><path d="M22.57,39c-.26.91-.46,1.76-.75,2.57a2.84,2.84,0,0,1-2.14,1.94C17.5,44,16,43,15.91,40.76s.14-4.49.24-6.73c0-1,.1-2,.16-3-.36.14-.63.26-.92.35a2.87,2.87,0,0,1-3.92-3,25.4,25.4,0,0,1,.81-4.87c.61-2.53,1.37-5,2-7.56a5,5,0,0,1,3.38-3.73,14.49,14.49,0,0,1,9.87,0,7.52,7.52,0,0,1,2.28,1.54,1.09,1.09,0,0,1,0,1.61,1.14,1.14,0,0,1-1.61.14,6.43,6.43,0,0,0-4.11-1.57,13.13,13.13,0,0,0-5.14.42,3,3,0,0,0-2.28,2.36c-.84,3.57-1.78,7.11-2.65,10.67a3,3,0,0,0,0,1.15.69.69,0,0,0,.39.5.68.68,0,0,0,.58-.25A7,7,0,0,0,15.73,27c.42-1.86.75-3.74,1.12-5.62,0-.17.06-.35.11-.53a1.23,1.23,0,1,1,2.44.34c-.08,1.6-.19,3.2-.28,4.8-.27,4.69-.54,9.39-.78,14.08,0,.35.16.95.37,1,.6.18.85-.31.95-.84.52-2.71,1-5.43,1.53-8.14l.15-.76a1.26,1.26,0,0,1,2.5,0c.31,1.73.61,3.46.92,5.18.2,1.12.41,2.24.64,3.35a2.26,2.26,0,0,0,.34.93,1.11,1.11,0,0,0,.73.31c.11,0,.29-.3.35-.49.26-.86.78-1.29,1.47-1.16s1.09.75,1,1.67a2.68,2.68,0,0,1-2.14,2.45A3.19,3.19,0,0,1,23.56,42,27.76,27.76,0,0,1,22.57,39Z" fill="#37383a" stroke="#fff" stroke-miterlimit="10" stroke-width="0.43"/><path d="M43.74,5.78a5.52,5.52,0,0,1-1.57,4,4.61,4.61,0,0,1-6.6.29,5.86,5.86,0,0,1-.13-8.44c3.35-3.08,7.31-.54,8.07,2.53C43.64,4.69,43.66,5.24,43.74,5.78Zm-7.53,0h0c0,.18,0,.36,0,.54A2.81,2.81,0,0,0,38.3,8.8a2.17,2.17,0,0,0,2.28-1,3.32,3.32,0,0,0,.53-3,2.75,2.75,0,0,0-2.38-2.12A2.82,2.82,0,0,0,36.3,4.89,6.83,6.83,0,0,0,36.21,5.81Z" fill="#37383a" stroke="#fff" stroke-miterlimit="10" stroke-width="0.43"/><path d="M59.51,5a4.91,4.91,0,0,1-1.38,3.69,4.46,4.46,0,0,1-6.85-.35,5,5,0,0,1-.57-5.54A4.38,4.38,0,0,1,55,.22,4.63,4.63,0,0,1,59.51,5Zm-6.83.14a2.23,2.23,0,0,0,1.43,2.39,2.08,2.08,0,0,0,2.22-.45A2.48,2.48,0,0,0,57,4.5,2.31,2.31,0,0,0,54.8,2.7a2.38,2.38,0,0,0-2.08,1.89A3.25,3.25,0,0,0,52.68,5.13Z" fill="#37383a" stroke="#fff" stroke-miterlimit="10" stroke-width="0.43"/><path d="M27.24,5.21a4.84,4.84,0,0,1-4.65,4.93,4.85,4.85,0,0,1-4.65-5A4.83,4.83,0,0,1,22.59.22,4.83,4.83,0,0,1,27.24,5.21Zm-6.82,0a2.36,2.36,0,0,0,2.14,2.48,2.36,2.36,0,0,0,2.2-2.5A2.35,2.35,0,0,0,22.58,2.7,2.36,2.36,0,0,0,20.42,5.17Z" fill="#37383a" stroke="#fff" stroke-miterlimit="10" stroke-width="0.43"/></svg>